# xmcd
#
# Track frame offsets: 
#        150
#        28930
#        52965
#        70245
#        90937
#        116410
#        139750
#        159375
#        191192
#        211302
#        234927
#
# Disc length: 3501 seconds
#
# Revision: 9
# Processed by: cddbd v1.5.2PL0 Copyright (c) Steve Scherf et al.
# Submitted via: ExactAudioCopyFreeDBPlugin 1.0
#
DISCID=8f0dab0b
DTITLE=UFO - Walk On Water (Japan XRCN-1237)
DYEAR=1995
DGENRE=Hard Rock
TTITLE0=A Self Made Man
TTITLE1=Venus
TTITLE2=Pushed To The Limit
TTITLE3=Stopped By A Bullet (Of Love)
TTITLE4=Darker Days
TTITLE5=Running On Empty
TTITLE6=Knock, Knock
TTITLE7=Dreaming Of Summer
TTITLE8=Doctor, Doctor '95
TTITLE9=Lights Out '95
TTITLE10=Message For Japan
EXTD=YEAR: 1995
EXTT0=
EXTT1=
EXTT2=
EXTT3=
EXTT4=
EXTT5=
EXTT6=
EXTT7=
EXTT8=
EXTT9=
EXTT10=
PLAYORDER=
